<svg xmlns="http://www.w3.org/2000/svg" width="1077.767" height="125.111" viewBox="0 0 1077.767 125.111">
  <path id="Line" d="M0,118.947c5.322,3.586,45.9,8.8,69.182-3.912s43.9-5.868,67.852-3.26,31.93-28.036,58.539-31.948,59.869-24.811,99.782-29.7,37.252,24.159,89.8,28.4,67.187-25.428,91.134-33.9S510.884-2.482,550.8.126s59.869,28.74,93.13,32S683.84,57.007,715.1,72.981s59.869,17.93,99.117,14.67,49.891-36.221,68.517-37.525,35.256,14.414,51.221,18,20.622,19.525,54.547,19.525,29.935,6.194,48.561,5.216,31.93-10.106,37.917-14.344" transform="translate(1.388 0.996)" fill="none" stroke="#21d59b" stroke-linecap="round" stroke-linejoin="round" stroke-width="2"/>
</svg>
